<svg id="visual" viewBox="0 0 900 600" width="900" height="600" xmlns="http://www.w3.org/2000/svg" xmlns:xlink="http://www.w3.org/1999/xlink" version="1.1"><rect x="0" y="0" width="900" height="600" fill="#001220"></rect><defs><linearGradient id="grad1_0" x1="33.3%" y1="0%" x2="100%" y2="100%"><stop offset="20%" stop-color="#001220" stop-opacity="1"></stop><stop offset="80%" stop-color="#001220" stop-opacity="1"></stop></linearGradient></defs><defs><linearGradient id="grad2_0" x1="0%" y1="0%" x2="66.7%" y2="100%"><stop offset="20%" stop-color="#001220" stop-opacity="1"></stop><stop offset="80%" stop-color="#001220" stop-opacity="1"></stop></linearGradient></defs><g transform="translate(900, 0)"><path d="M0 486.7C-70.9 487.6 -141.8 488.5 -186.3 449.7C-230.7 410.9 -248.7 332.3 -281.4 281.4C-314.1 230.5 -361.5 207.2 -398.2 164.9C-434.9 122.6 -460.8 61.3 -486.7 0L0 0Z" fill="#06B6D4"></path></g><g transform="translate(0, 600)"><path d="M0 -486.7C50.4 -450.2 100.9 -413.7 164.2 -396.3C227.5 -379 303.7 -380.8 344.2 -344.2C384.7 -307.6 389.6 -232.5 407.4 -168.8C425.3 -105 456 -52.5 486.7 0L0 0Z" fill="#06B6D4"></path></g></svg>